<svg width="1052" height="469" viewBox="0 0 1052 469" fill="none" xmlns="http://www.w3.org/2000/svg">
<path fill-rule="evenodd" clip-rule="evenodd" d="M50.3232 117.515C37.5836 128.337 29.5002 144.475 29.5002 162.5C29.5002 195.085 55.9154 221.5 88.5002 221.5C108.471 221.5 126.125 211.577 136.8 196.393L114.642 176.183C109.71 185.585 99.8544 192 88.5002 192C72.2078 192 59.0002 178.792 59.0002 162.5C59.0002 152.114 64.3676 142.981 72.4798 137.725L50.3232 117.515ZM110.554 142.907C109.18 141.361 107.645 139.96 105.977 138.731L70.4387 106.316C76.131 104.487 82.2003 103.5 88.5002 103.5C121.085 103.5 147.5 129.915 147.5 162.5C147.5 166.906 147.017 171.2 146.101 175.331L110.554 142.907Z" fill="url(#paint0_linear)"/>
<circle cx="88.4998" cy="162.5" r="29.5" fill="url(#paint1_linear)"/>
<path fill-rule="evenodd" clip-rule="evenodd" d="M158.502 216.654C142.314 237.549 116.978 251 88.5 251C39.6228 251 0 211.377 0 162.5C0 113.623 39.6228 74 88.5 74C137.377 74 177 113.623 177 162.5C177 166.322 176.758 170.088 176.288 173.783L144.912 145.163C137.507 121.039 115.051 103.5 88.4998 103.5C55.915 103.5 29.4998 129.915 29.4998 162.5C29.4998 195.085 55.915 221.5 88.4998 221.5C108.347 221.5 125.905 211.7 136.599 196.676L158.502 216.654Z" fill="white"/>
<path d="M188.5 251H212.75V179.75C212.75 163.5 226 150.25 242.25 150.25H267V126H242.25C212.5 126 188.5 150.25 188.5 179.75V251ZM392.639 189.25C392.639 155.25 365.139 126.25 331.139 126.25C296.889 126.25 269.389 155.25 269.389 189.25C269.389 223.5 296.889 251 331.139 251V226.75C310.139 226.75 293.639 210 293.639 189.25C293.639 168.5 310.139 150.5 331.139 150.5C351.889 150.5 368.389 168.5 368.389 189.25V238.25V251H392.639V189.25ZM504.199 251H528.449V187.75C528.449 153.75 500.949 126 466.949 126C432.699 126 405.199 153.75 405.199 187.75V251H429.449V187.75C429.449 167 445.949 150.25 466.949 150.25C487.699 150.25 504.199 167 504.199 187.75V251ZM565.143 125.75H540.893V251H565.143V125.75ZM695.959 189.25C695.959 155.25 668.459 126.25 634.459 126.25C600.209 126.25 572.709 155.25 572.709 189.25C572.709 223.5 600.209 251 634.459 251V226.75C613.459 226.75 596.959 210 596.959 189.25C596.959 168.5 613.459 150.5 634.459 150.5C655.209 150.5 671.709 168.5 671.709 189.25V238.25V251H695.959V189.25ZM732.77 95.75H708.52V201.25C708.52 228.75 730.52 251 758.02 251H769.52V226.75H758.02C743.77 226.75 732.77 215.5 732.77 201.25V95.75Z" fill="white"/>
<path d="M212.75 261.75H188.5V367.25C188.5 394.75 210.5 417 238 417H249.5V392.75H238C223.75 392.75 212.75 381.5 212.75 367.25V261.75ZM281.938 343.75C295.188 305.75 347.188 305.5 358.188 343.75H281.938ZM381.938 367.5C382.938 363.25 383.438 359 383.438 354.5C383.438 319.5 354.938 291 320.188 291C284.938 291 256.938 319.5 256.938 354.5C256.938 389.5 284.938 417.75 320.188 417.75C346.688 417.75 369.688 401 378.688 377.75H351.938C332.938 403.5 293.188 396.25 282.938 367.5H381.938ZM514.172 355.25C514.172 321.25 486.672 292.25 452.672 292.25C418.422 292.25 390.922 321.25 390.922 355.25C390.922 389.5 418.422 417 452.672 417V392.75C431.672 392.75 415.172 376 415.172 355.25C415.172 334.5 431.672 316.5 452.672 316.5C473.422 316.5 489.922 334.5 489.922 355.25V404.25V417H514.172V355.25ZM526.732 417H550.982V345.75C550.982 329.5 564.232 316.25 580.482 316.25H605.232V292H580.482C550.732 292 526.732 316.25 526.732 345.75V417ZM711.621 417H735.871V353.75C735.871 319.75 708.371 292 674.371 292C640.121 292 612.621 319.75 612.621 353.75V417H636.871V353.75C636.871 333 653.371 316.25 674.371 316.25C695.121 316.25 711.621 333 711.621 353.75V417ZM772.564 291.75H748.314V417H772.564V291.75ZM884.131 417H908.381V353.75C908.381 319.75 880.881 292 846.881 292C812.631 292 785.131 319.75 785.131 353.75V417H809.381V353.75C809.381 333 825.881 316.25 846.881 316.25C867.631 316.25 884.131 333 884.131 353.75V417ZM1039.07 392.25C1039.07 392.25 1039.07 356.25 1039.07 354C1039.07 319.75 1011.57 292 977.574 292C943.324 292 915.824 319.75 915.824 354C915.824 388 943.324 415.5 977.574 415.5V391.25C956.574 391.25 940.074 374.5 940.074 354C940.074 333 956.574 316.25 977.574 316.25C998.074 316.25 1014.82 333 1014.82 354V392.25C1014.82 417 994.074 430 977.574 430H939.824V454.25H977.574C1011.57 454.25 1039.07 426.5 1039.07 392.25Z" fill="white"/>
<defs>
<linearGradient id="paint0_linear" x1="66.7143" y1="131.409" x2="144.231" y2="200.08" gradientUnits="userSpaceOnUse">
<stop stop-color="#00A5BC"/>
<stop offset="1" stop-color="#73D5A6"/>
</linearGradient>
<linearGradient id="paint1_linear" x1="88.4998" y1="133" x2="88.4998" y2="192" gradientUnits="userSpaceOnUse">
<stop stop-color="white" stop-opacity="0"/>
<stop offset="1" stop-color="#00A5BC"/>
</linearGradient>
</defs>
</svg>
