<?xml version="1.0" encoding="UTF-8" standalone="no"?>
<svg
   xmlns:dc="http://purl.org/dc/elements/1.1/"
   xmlns:cc="http://creativecommons.org/ns#"
   xmlns:rdf="http://www.w3.org/1999/02/22-rdf-syntax-ns#"
   xmlns:svg="http://www.w3.org/2000/svg"
   xmlns="http://www.w3.org/2000/svg"
   xmlns:xlink="http://www.w3.org/1999/xlink"
   xmlns:sodipodi="http://sodipodi.sourceforge.net/DTD/sodipodi-0.dtd"
   xmlns:inkscape="http://www.inkscape.org/namespaces/inkscape"
   viewBox="0 0 960.00757 992.85284"
   version="1.1"
   id="svg38"
   sodipodi:docname="icon-vector-file-trimmed.svg"
   width="960.00757"
   height="992.85284"
   inkscape:version="1.0.2 (e86c870879, 2021-01-15)">
  <metadata
     id="metadata42">
    <rdf:RDF>
      <cc:Work
         rdf:about="">
        <dc:format>image/svg+xml</dc:format>
        <dc:type
           rdf:resource="http://purl.org/dc/dcmitype/StillImage" />
        <dc:title>icon vector file</dc:title>
      </cc:Work>
    </rdf:RDF>
  </metadata>
  <sodipodi:namedview
     pagecolor="#ffffff"
     bordercolor="#666666"
     borderopacity="1"
     objecttolerance="10"
     gridtolerance="10"
     guidetolerance="10"
     inkscape:pageopacity="0"
     inkscape:pageshadow="2"
     inkscape:window-width="1920"
     inkscape:window-height="1016"
     id="namedview40"
     showgrid="false"
     inkscape:zoom="0.57466667"
     inkscape:cx="480.0076"
     inkscape:cy="496.42643"
     inkscape:window-x="0"
     inkscape:window-y="27"
     inkscape:window-maximized="1"
     inkscape:current-layer="svg38" />
  <defs
     id="defs15">
    <style
       id="style2">.cls-1{isolation:isolate;}.cls-2{fill:url(#linear-gradient);}.cls-3{fill:url(#linear-gradient-2);}.cls-4{fill:#fff;opacity:0.31;mix-blend-mode:overlay;}.cls-5{fill:url(#linear-gradient-3);}</style>
    <linearGradient
       id="linear-gradient"
       x1="520"
       y1="750"
       x2="1480"
       y2="750"
       gradientUnits="userSpaceOnUse">
      <stop
         offset="0"
         stop-color="#00e2a5"
         id="stop4" />
      <stop
         offset="0.38"
         stop-color="#00c6b0"
         id="stop6" />
      <stop
         offset="0.75"
         stop-color="#00b1b9"
         id="stop8" />
      <stop
         offset="1"
         stop-color="#00aabc"
         id="stop10" />
    </linearGradient>
    <linearGradient
       id="linear-gradient-2"
       x1="1183.89"
       y1="1038.88"
       x2="1479.99"
       y2="1038.88"
       xlink:href="#linear-gradient" />
    <linearGradient
       id="linear-gradient-3"
       x1="1183.89"
       y1="-9069.2305"
       x2="1479.99"
       y2="-9069.2305"
       gradientTransform="matrix(1,0,0,-1,0,-8608.1)"
       xlink:href="#linear-gradient" />
    <linearGradient
       inkscape:collect="always"
       xlink:href="#linear-gradient"
       id="linearGradient867"
       gradientUnits="userSpaceOnUse"
       x1="520"
       y1="750"
       x2="1480"
       y2="750" />
  </defs>
  <title
     id="title17">icon vector file</title>
  <g
     class="cls-1"
     id="g36"
     transform="translate(-519.9924,-253.57357)">
    <g
       id="Layer_1"
       data-name="Layer 1">
      <path
         class="cls-2"
         d="m 713.3,742.7 c -1,-120.37 72.55,-253.76 187,-291.28 4.18,-1.39 8.42,-2.66 12.74,-3.89 l 0.74,-0.21 a 109.28,109.28 0 0 1 13.36,-2.86 2.47,2.47 0 0 0 0.44,0 110.83,110.83 0 0 1 11.9,-1 c 1.49,0 3,0 4.48,0 1.48,0 2.8,0.11 4.21,0.16 a 113.66,113.66 0 0 1 11.35,1 c 2,0.27 4.08,0.57 6.12,1 2.04,0.43 4,0.87 5.95,1.36 2.39,0.71 4.75,1.38 7.14,2.06 1.2,0.38 2.37,0.74 3.53,1.14 q 5.17,1.88 10.19,4.24 c 1.44,0.68 2.83,1.47 4.27,2.18 2.36,1.16 4.64,2.55 6.92,3.91 l 3.1,1.93 c 3.32,2.17 6.55,4.45 9.65,6.95 a 3.23,3.23 0 0 0 0.84,0.74 124,124 0 0 1 24.45,28 c 29.31,46.78 63.92,102.23 201.61,121.92 5.13,0.76 10.57,1.44 16,2.12 L 1480,642.84 q -1.07,-6.93 -2.36,-13.86 c -2.64,-13.8 -6,-27.57 -9.89,-41.43 -21.63,-76.28 -58.66,-141.35 -107,-193 A 434,434 0 0 0 1184.46,279.99 l -0.59,-0.22 c -93,-32.38 -199.82,-35.59 -309.14,-4.56 -48.19,13.66 -92.18,32.16 -131.44,55.53 a 449.34,449.34 0 0 0 -47.4,31.54 q -10.68,8.11 -20.7,16.71 c -3.59,3.07 -7,6.33 -10.49,9.5 -2.74,2.53 -5.62,4.95 -8.31,7.53 l -0.57,0.6 c -1.69,1.63 -3.29,3.31 -5,5 -4.32,4.26 -8.5,8.61 -12.6,13 -2,2.12 -3.86,4.26 -5.79,6.41 -3.94,4.43 -7.77,9 -11.52,13.58 -1.06,1.34 -2.15,2.61 -3.18,3.92 -5.19,6.54 -10.19,13.2 -14.94,20.05 v 0 c -4.56,6.55 -8.88,13.29 -13,20.11 -1.08,1.79 -2.14,3.58 -3.2,5.38 q -4.65,7.86 -8.94,15.92 c -1.09,2 -2.2,4.07 -3.23,6.11 -3.67,7.17 -7.2,14.45 -10.46,21.87 C 528.19,611.43 519.71,691.43 520,750 c -0.3,58.57 8.18,138.57 43.94,222 3.26,7.42 6.79,14.7 10.46,21.87 1,2 2.14,4.08 3.23,6.11 q 4.27,8 8.94,15.92 c 1.06,1.8 2.12,3.59 3.2,5.38 4.16,6.82 8.48,13.56 13,20.11 v 0 c 4.75,6.85 9.75,13.51 14.94,20 1,1.31 2.12,2.58 3.18,3.92 3.75,4.59 7.58,9.15 11.52,13.58 1.93,2.15 3.83,4.29 5.79,6.41 4.1,4.43 8.28,8.78 12.6,13 1.66,1.66 3.26,3.34 5,5 l 0.57,0.6 c 2.69,2.58 5.57,5 8.31,7.53 3.48,3.17 6.9,6.43 10.49,9.5 q 10,8.61 20.7,16.71 a 449.34,449.34 0 0 0 47.4,31.54 c 39.26,23.37 83.25,41.87 131.44,55.53 109.32,31 216.14,27.82 309.14,-4.56 l 0.59,-0.22 a 434,434 0 0 0 176.29,-114.56 c 48.33,-51.7 85.36,-116.77 107,-193 3.94,-13.86 7.25,-27.63 9.89,-41.43 q 1.3,-6.93 2.36,-13.86 l -220.76,20.76 c -5.43,0.68 -10.87,1.36 -16,2.12 -137.69,19.69 -172.3,75.14 -201.61,121.92 a 124,124 0 0 1 -24.45,28 3.23,3.23 0 0 0 -0.84,0.74 c -3.1,2.5 -6.33,4.78 -9.65,7 l -3.1,1.93 c -2.28,1.36 -4.56,2.75 -6.92,3.91 -1.44,0.71 -2.83,1.5 -4.27,2.18 q -5,2.36 -10.19,4.24 c -1.16,0.4 -2.33,0.76 -3.53,1.14 -2.39,0.68 -4.75,1.35 -7.14,2.06 -2,0.49 -4,1 -5.95,1.36 -1.95,0.36 -4.08,0.71 -6.12,1 a 113.66,113.66 0 0 1 -11.35,1 c -1.41,0 -2.83,0.16 -4.21,0.16 -1.38,0 -3,0 -4.48,0 a 110.83,110.83 0 0 1 -11.9,-1 2.47,2.47 0 0 0 -0.44,0 109.28,109.28 0 0 1 -13.36,-2.86 l -0.74,-0.21 c -4.32,-1.23 -8.56,-2.5 -12.74,-3.89 C 785.85,1011.06 714,885.1 713.3,742.7 Z"
         id="path19"
         style="fill:url(#linearGradient867)" />
      <path
         class="cls-3"
         d="m 1243.24,880.34 c 5.14,-0.76 10.57,-1.44 16,-2.13 L 1480,857.16 a 463.88,463.88 0 0 1 -12.23,55.59 c -43.51,153.41 -149.35,261.21 -283.87,307.84 198.61,-168.49 94.2,-304.16 59.34,-340.25 z"
         id="path21"
         style="fill:url(#linear-gradient-2)" />
      <path
         class="cls-4"
         d="m 1132.1,300.64 a 583,583 0 0 0 -80.62,-16.82 L 1035.79,282 a 501.87,501.87 0 0 0 -69.64,-2.68 l -16,0.73 a 465.81,465.81 0 0 0 -66.07,8.53 c -3.74,0.73 -7.4,1.46 -11.14,2.36 a 446.49,446.49 0 0 0 -50,14.22 441.83,441.83 0 0 0 -85.49,40.23 l -14,8.94 -22.92,16.33 c -10.32,7.8 -20.39,16.17 -30,25 -8.46,7.72 -16.66,15.85 -24.55,24.3 5,-3.58 10.16,-7.07 15.44,-10.56 l 0.09,-0.09 c 122.71,-80.53 327.91,-137.58 602,-53.15 -39.26,-23.34 -83.22,-41.87 -131.41,-55.52 z"
         id="path23" />
      <path
         class="cls-4"
         d="m 1016.34,1030.67 a 3,3 0 0 1 0.84,-0.72 98.39,98.39 0 0 0 13.93,-13.83 97.05,97.05 0 0 0 10.52,-14.16 c 29.31,-46.78 63.93,-102.22 201.61,-121.91 5.14,-0.77 10.57,-1.45 16,-2.13 -40.81,9.54 -127,36.37 -165.87,98.38 -51,81.91 -170.25,171.45 -361.75,162.55 86.72,-0.65 194.14,-23.37 284.72,-108.18 z"
         id="path25" />
      <path
         class="cls-4"
         d="m 743.3,1169.31 c 285.9,88.08 496.87,22.17 617.47,-63.81 a 434.56,434.56 0 0 1 -176.88,114.79 c -93,32.37 -199.83,35.57 -309.16,4.56 -48.2,-13.67 -92.17,-32.18 -131.43,-55.54 z"
         id="path27" />
      <path
         class="cls-5"
         d="m 1243.24,619.66 c 5.14,0.76 10.57,1.44 16,2.13 L 1480,642.84 a 463.88,463.88 0 0 0 -12.23,-55.59 C 1424.25,433.84 1318.41,326 1183.89,279.41 c 198.62,168.49 94.21,304.16 59.35,340.25 z"
         id="path29"
         style="fill:url(#linear-gradient-3)" />
      <path
         class="cls-4"
         d="m 1016.34,469.33 a 3,3 0 0 0 0.84,0.72 98.39,98.39 0 0 1 13.93,13.83 97.05,97.05 0 0 1 10.52,14.12 c 29.31,46.78 63.93,102.22 201.61,121.91 5.14,0.77 10.57,1.45 16,2.13 -40.81,-9.54 -127,-36.37 -165.87,-98.38 -51,-81.91 -170.25,-171.45 -361.75,-162.55 86.72,0.69 194.14,23.41 284.72,108.22 z"
         id="path31" />
      <path
         class="cls-4"
         d="m 743.3,330.69 c 285.9,-88.08 496.87,-22.17 617.47,63.81 A 434.56,434.56 0 0 0 1183.89,279.71 c -93,-32.37 -199.83,-35.57 -309.16,-4.56 -48.2,13.67 -92.17,32.18 -131.43,55.54 z"
         id="path33" />
    </g>
  </g>
</svg>
